<?xml version="1.0" encoding="utf-8"?>
<!-- Generator: Adobe Illustrator 19.2.0, SVG Export Plug-In . SVG Version: 6.00 Build 0)  -->
<svg version="1.1" id="Layer_1" xmlns="http://www.w3.org/2000/svg" xmlns:xlink="http://www.w3.org/1999/xlink" x="0px" y="0px"
	 viewBox="0 0 496.1 155.9" style="enable-background:new 0 0 496.1 155.9;" xml:space="preserve">
<style type="text/css">
	.st0{fill-rule:evenodd;clip-rule:evenodd;fill:#2B2A29;}
	.st1{fill-rule:evenodd;clip-rule:evenodd;fill:#8DBF37;}
	.st2{fill-rule:evenodd;clip-rule:evenodd;fill:#000000;}
	.st3{fill:#000000;}
</style>
<g>
	<polygon class="st0" points="111.8,-54.7 110,-54.7 110,-54.7 110,-54.7 110,-54.7 111.8,-54.7 111.8,-54.7 111.8,-54.7 	"/>
	<path class="st1" d="M52.2,150.6c1.8-1.3,3.6-2.6,5.4-3.9c0.2-1.3,0.3-2.6,0.2-3.8c0.1-5.5-3-8.1-9.3-8.2
		c-9.5-0.2-17.6-0.2-23.3-2.7c-3.9-1.7-4.1-6.5-2.5-11.3c2.3-5.3,1.9-8.9-1.3-10.7c-3.6-2.7-3.8-4.9-0.6-6.8
		c-1.4-0.8-2.5-1.8-3.2-3.2c1.2-2.8,1.3-5.4,1.4-7.9c0.1-2.5-1.9-4.7-7.1-6.9c-2.3-3-1.6-6.3,2.2-9.8c7.3-9,12.2-11.5,11.7-16.7
		c-0.6-5.2,0-13.1,1.5-19c2-7.8,8.6-16.4,17.4-23.7C54.3,8.9,66.2,5,80.6,4.7C64.2,4.3,50.7,8.2,40.3,16.1
		c-8.7,7.3-15.4,15.9-17.4,23.7c-1.5,5.9-2.1,13.8-1.5,19C21.9,64,17,66.5,9.7,75.5c-3.8,3.5-4.5,6.7-2.2,9.8
		c5.2,2.2,7.2,4.4,7.1,6.9c-0.1,2.5-0.3,5.1-1.4,7.9c0.7,1.3,1.7,2.4,3.2,3.2c-3.1,1.9-2.9,4.1,0.6,6.8c3.1,1.9,3.5,5.4,1.3,10.7
		c-1.6,4.8-1.4,9.6,2.5,11.3c5.7,2.5,13.8,2.5,23.3,2.7c6.3,0.1,9.4,2.7,9.3,8.2C53.4,145.3,53.1,147.8,52.2,150.6z"/>
	<path class="st2" d="M62.3,140.7c0.1,0.3,0.1,0.6,0.1,0.9l3.3-3.3c0.2,0.1,0.5,0.2,0.8,0.2l0,0c1.1,0,1.9-0.9,1.9-1.9
		c0-1.1-0.9-1.9-1.9-1.9c-1.1,0-1.9,0.9-1.9,1.9c0,0.5,0.2,1,0.6,1.4L62.3,140.7L62.3,140.7z M125,104.7c-0.3,0-0.5-0.2-0.5-0.5
		c0-0.3,0.2-0.5,0.5-0.5c0.3,0,0.5,0.2,0.5,0.5C125.5,104.5,125.3,104.7,125,104.7L125,104.7L125,104.7z M53.9,55
		c-0.3,0-0.5-0.2-0.5-0.5c0-0.3,0.2-0.5,0.5-0.5c0.3,0,0.5,0.2,0.5,0.5C54.4,54.8,54.1,55,53.9,55L53.9,55L53.9,55z M88,26.8
		c-0.3,0-0.5-0.2-0.5-0.5c0-0.3,0.2-0.5,0.5-0.5c0.3,0,0.5,0.2,0.5,0.5C88.5,26.6,88.2,26.8,88,26.8L88,26.8L88,26.8z M83.1,21.9
		c-0.3,0-0.5-0.2-0.5-0.5c0-0.3,0.2-0.5,0.5-0.5c0.3,0,0.5,0.2,0.5,0.5C83.6,21.7,83.4,21.9,83.1,21.9L83.1,21.9L83.1,21.9z
		 M77.2,17c-0.3,0-0.5-0.2-0.5-0.5c0-0.3,0.2-0.5,0.5-0.5c0.3,0,0.5,0.2,0.5,0.5C77.7,16.8,77.5,17,77.2,17L77.2,17L77.2,17z
		 M65.6,17c-0.3,0-0.5-0.2-0.5-0.5c0-0.3,0.2-0.5,0.5-0.5c0.3,0,0.5,0.2,0.5,0.5C66,16.8,65.8,17,65.6,17L65.6,17L65.6,17z
		 M93.8,22.9c-0.3,0-0.5-0.2-0.5-0.5c0-0.3,0.2-0.5,0.5-0.5c0.3,0,0.5,0.2,0.5,0.5C94.3,22.7,94.1,22.9,93.8,22.9L93.8,22.9
		L93.8,22.9z M60.7,55c-0.3,0-0.5-0.2-0.5-0.5c0-0.3,0.2-0.5,0.5-0.5c0.3,0,0.5,0.2,0.5,0.5C61.2,54.8,61,55,60.7,55L60.7,55
		L60.7,55z M33.4,55c-0.3,0-0.5-0.2-0.5-0.5c0-0.3,0.2-0.5,0.5-0.5c0.3,0,0.5,0.2,0.5,0.5C33.9,54.8,33.7,55,33.4,55L33.4,55
		L33.4,55z M40.2,55c-0.3,0-0.5-0.2-0.5-0.5c0-0.3,0.2-0.5,0.5-0.5c0.3,0,0.5,0.2,0.5,0.5C40.7,54.8,40.5,55,40.2,55L40.2,55
		L40.2,55z M47,55c-0.3,0-0.5-0.2-0.5-0.5c0-0.3,0.2-0.5,0.5-0.5c0.3,0,0.5,0.2,0.5,0.5C47.5,54.8,47.3,55,47,55L47,55L47,55z
		 M68.5,103.8c-0.3,0-0.5-0.2-0.5-0.5c0-0.3,0.2-0.5,0.5-0.5c0.3,0,0.5,0.2,0.5,0.5C69,103.5,68.7,103.8,68.5,103.8L68.5,103.8
		L68.5,103.8z M50,97.5c-0.3,0-0.5-0.2-0.5-0.5c0-0.3,0.2-0.5,0.5-0.5c0.3,0,0.5,0.2,0.5,0.5C50.5,97.3,50.2,97.5,50,97.5L50,97.5
		L50,97.5z M38.3,108.6c-0.3,0-0.5-0.2-0.5-0.5c0-0.3,0.2-0.5,0.5-0.5c0.3,0,0.5,0.2,0.5,0.5C38.8,108.4,38.5,108.6,38.3,108.6
		L38.3,108.6L38.3,108.6z M44.1,103.8c-0.3,0-0.5-0.2-0.5-0.5c0-0.3,0.2-0.5,0.5-0.5s0.5,0.2,0.5,0.5
		C44.6,103.5,44.4,103.8,44.1,103.8L44.1,103.8L44.1,103.8z M66.5,136.9c-0.3,0-0.5-0.2-0.5-0.5c0-0.3,0.2-0.5,0.5-0.5
		c0.3,0,0.5,0.2,0.5,0.5C67,136.7,66.8,136.9,66.5,136.9L66.5,136.9L66.5,136.9z M57.8,125.8c-0.3,0-0.5-0.2-0.5-0.5
		c0-0.3,0.2-0.5,0.5-0.5c0.3,0,0.5,0.2,0.5,0.5C58.2,125.6,58,125.8,57.8,125.8L57.8,125.8L57.8,125.8z M67.5,118.4
		c-0.3,0-0.5-0.2-0.5-0.5c0-0.3,0.2-0.5,0.5-0.5c0.3,0,0.5,0.2,0.5,0.5C68,118.2,67.8,118.4,67.5,118.4L67.5,118.4L67.5,118.4z
		 M72.4,113.5c-0.3,0-0.5-0.2-0.5-0.5c0-0.3,0.2-0.5,0.5-0.5c0.3,0,0.5,0.2,0.5,0.5C72.9,113.3,72.6,113.5,72.4,113.5L72.4,113.5
		L72.4,113.5z M125,120.3c-0.3,0-0.5-0.2-0.5-0.5c0-0.3,0.2-0.5,0.5-0.5c0.3,0,0.5,0.2,0.5,0.5C125.5,120.1,125.3,120.3,125,120.3
		L125,120.3L125,120.3z M125,112.5c-0.3,0-0.5-0.2-0.5-0.5c0-0.3,0.2-0.5,0.5-0.5c0.3,0,0.5,0.2,0.5,0.5
		C125.5,112.3,125.3,112.5,125,112.5L125,112.5L125,112.5z M123,21.9c-0.3,0-0.5-0.2-0.5-0.5c0-0.3,0.2-0.5,0.5-0.5
		c0.3,0,0.5,0.2,0.5,0.5C123.5,21.7,123.3,21.9,123,21.9L123,21.9L123,21.9z M111.3,96.9c-0.3,0-0.5-0.2-0.5-0.5
		c0-0.3,0.2-0.5,0.5-0.5c0.3,0,0.5,0.2,0.5,0.5C111.8,96.7,111.6,96.9,111.3,96.9L111.3,96.9L111.3,96.9z M124,88.2
		c-0.3,0-0.5-0.2-0.5-0.5c0-0.3,0.2-0.5,0.5-0.5c0.3,0,0.5,0.2,0.5,0.5C124.5,88,124.3,88.2,124,88.2L124,88.2L124,88.2z
		 M135.7,79.4c-0.3,0-0.5-0.2-0.5-0.5c0-0.3,0.2-0.5,0.5-0.5s0.5,0.2,0.5,0.5C136.2,79.2,136,79.4,135.7,79.4L135.7,79.4L135.7,79.4
		z M135.7,71.6c-0.3,0-0.5-0.2-0.5-0.5s0.2-0.5,0.5-0.5s0.5,0.2,0.5,0.5S136,71.6,135.7,71.6L135.7,71.6L135.7,71.6z M135.7,63.8
		c-0.3,0-0.5-0.2-0.5-0.5c0-0.3,0.2-0.5,0.5-0.5s0.5,0.2,0.5,0.5C136.2,63.6,136,63.8,135.7,63.8L135.7,63.8L135.7,63.8z M135.7,56
		c-0.3,0-0.5-0.2-0.5-0.5c0-0.3,0.2-0.5,0.5-0.5s0.5,0.2,0.5,0.5C136.2,55.8,136,56,135.7,56L135.7,56L135.7,56z M135.7,48.2
		c-0.3,0-0.5-0.2-0.5-0.5c0-0.3,0.2-0.5,0.5-0.5s0.5,0.2,0.5,0.5C136.2,48,136,48.2,135.7,48.2L135.7,48.2L135.7,48.2z M123,51.1
		c-0.3,0-0.5-0.2-0.5-0.5c0-0.3,0.2-0.5,0.5-0.5c0.3,0,0.5,0.2,0.5,0.5C123.5,50.9,123.3,51.1,123,51.1L123,51.1L123,51.1z
		 M123,43.3c-0.3,0-0.5-0.2-0.5-0.5c0-0.3,0.2-0.5,0.5-0.5c0.3,0,0.5,0.2,0.5,0.5C123.5,43.1,123.3,43.3,123,43.3L123,43.3L123,43.3
		z M123,35.6c-0.3,0-0.5-0.2-0.5-0.5s0.2-0.5,0.5-0.5c0.3,0,0.5,0.2,0.5,0.5S123.3,35.6,123,35.6L123,35.6L123,35.6z M61.3,150.6
		c0.1-0.4,0.2-0.8,0.3-1.2l30.2-30.2h31.3c0.2-0.8,1-1.4,1.9-1.4c1.1,0,1.9,0.9,1.9,1.9c0,1.1-0.9,1.9-1.9,1.9l0,0
		c-0.9,0-1.7-0.6-1.9-1.5H91.9l-30,30C61.7,150.4,61.5,150.5,61.3,150.6L61.3,150.6z M126.9,104.2c0-0.1,0-0.1,0-0.2
		c-0.1-1-0.9-1.8-1.9-1.8c-0.9,0-1.6,0.6-1.9,1.4H91.9L78.2,90.1H25.6L23.7,92c0,0.1,0,0.2,0,0.2c0,0.3,0,0.5,0,0.8l2-2h52.6
		l13.6,13.6h31.2c0.2,0.9,1,1.5,1.9,1.5l0,0C126.1,106.2,126.9,105.3,126.9,104.2L126.9,104.2z M64.1,8.3c-0.2,0.1-0.5,0.2-0.7,0.3
		l2.2,2.2h16.6L92.4,21c-0.4,0.4-0.6,0.8-0.6,1.4c0,1.1,0.9,1.9,1.9,1.9l0,0c1.1,0,1.9-0.9,1.9-1.9c0-1.1-0.9-1.9-1.9-1.9
		c-0.3,0-0.6,0.1-0.8,0.2L82.1,9.7H65.6L64.1,8.3L64.1,8.3z M59.9,9.9c-0.2,0.1-0.4,0.2-0.7,0.3l4.9,4.9c-0.4,0.4-0.6,0.8-0.6,1.4
		c0,1.1,0.9,1.9,1.9,1.9l0,0c1.1,0,1.9-0.9,1.9-1.9c0-1.1-0.9-1.9-1.9-1.9c-0.3,0-0.6,0.1-0.8,0.2L59.9,9.9L59.9,9.9z M50.6,15.2
		c-0.2,0.1-0.4,0.3-0.6,0.4l14.6,14.6l11.9-11.9c0.2,0.1,0.5,0.2,0.8,0.2l0,0c1.1,0,1.9-0.9,1.9-1.9c0-1.1-0.9-1.9-1.9-1.9
		c-1.1,0-1.9,0.9-1.9,1.9c0,0.5,0.2,1,0.6,1.4L64.6,29.2L50.6,15.2L50.6,15.2z M47.9,17.4c-0.2,0.2-0.3,0.3-0.5,0.5L67.5,38
		l14.8-14.8c0.2,0.1,0.5,0.2,0.8,0.2l0,0c1.1,0,1.9-0.9,1.9-1.9c0-1.1-0.9-1.9-1.9-1.9c-1.1,0-1.9,0.9-1.9,1.9c0,0.5,0.2,1,0.6,1.4
		L67.5,37L47.9,17.4L47.9,17.4z M45.8,19.2c-0.2,0.2-0.3,0.3-0.5,0.5l25.1,25.1l16.7-16.7c0.2,0.1,0.5,0.2,0.8,0.2l0,0
		c1.1,0,1.9-0.9,1.9-1.9c0-1.1-0.9-1.9-1.9-1.9c-1.1,0-1.9,0.9-1.9,1.9c0,0.5,0.2,1,0.6,1.4L70.4,43.8L45.8,19.2L45.8,19.2z
		 M42,23.2c-0.2,0.2-0.3,0.3-0.5,0.5l25,25H88l17.5-17.5h8.8l8-8c0.2,0.1,0.5,0.2,0.8,0.2l0,0c1.1,0,1.9-0.9,1.9-1.9
		c0-1.1-0.9-1.9-1.9-1.9c-1.1,0-1.9,0.9-1.9,1.9c0,0.5,0.2,1,0.6,1.4l-7.4,7.4h-8.8L88,47.7H66.5L42,23.2L42,23.2z M40,25.5
		c-0.1,0.2-0.3,0.4-0.4,0.5l28,28h21.4l18.5-18.5h13.7c0.2,0.9,1,1.5,1.9,1.5l0,0c1.1,0,1.9-0.9,1.9-1.9c0-1.1-0.9-1.9-1.9-1.9
		c-0.9,0-1.6,0.6-1.9,1.4h-13.7L88.9,53H67.5L40,25.5L40,25.5z M33.3,36c-0.1,0.3-0.3,0.7-0.4,1h10.3l16.2,16.2
		c-0.4,0.4-0.6,0.8-0.6,1.4c0,1.1,0.9,1.9,1.9,1.9l0,0c1.1,0,1.9-0.9,1.9-1.9c0-1.1-0.9-1.9-1.9-1.9c-0.3,0-0.6,0.1-0.8,0.2L43.1,36
		H33.3L33.3,36z M31.9,39.9c-0.1,0.3-0.2,0.6-0.2,1h8.5l12.3,12.3c-0.4,0.4-0.6,0.8-0.6,1.4c0,1.1,0.9,1.9,1.9,1.9l0,0
		c1.1,0,1.9-0.9,1.9-1.9c0-1.1-0.9-1.9-1.9-1.9c-0.3,0-0.6,0.1-0.8,0.2L40.2,39.9H31.9L31.9,39.9z M31,44.8c0,0.3-0.1,0.6-0.1,1h7.4
		l7.4,7.4c-0.4,0.4-0.6,0.8-0.6,1.4c0,1.1,0.9,1.9,1.9,1.9l0,0c1.1,0,1.9-0.9,1.9-1.9c0-1.1-0.9-1.9-1.9-1.9c-0.3,0-0.6,0.1-0.8,0.2
		l-8-8H31L31,44.8z M30.6,47.7c0,0.3-0.1,0.6-0.1,1h3.9l4.5,4.5c-0.4,0.4-0.6,0.8-0.6,1.4c0,1.1,0.9,1.9,1.9,1.9l0,0
		c1.1,0,1.9-0.9,1.9-1.9c0-1.1-0.9-1.9-1.9-1.9c-0.3,0-0.6,0.1-0.8,0.2l-5-5H30.6L30.6,47.7z M30.3,54c0,0.3,0,0.7,0,1h1.2
		c0.2,0.9,1,1.5,1.9,1.5l0,0c1.1,0,1.9-0.9,1.9-1.9c0-1.1-0.9-1.9-1.9-1.9c-0.9,0-1.6,0.6-1.9,1.4H30.3L30.3,54z M30.5,59.9
		c0,0.3,0,0.7-0.1,1H87l17.5-17.5h16.6c0.2,0.9,1,1.5,1.9,1.5l0,0c1.1,0,1.9-0.9,1.9-1.9c0-1.1-0.9-1.9-1.9-1.9
		c-0.9,0-1.6,0.6-1.9,1.4h-16.6L87,59.9H30.5L30.5,59.9z M29.1,63.8c-0.2,0.3-0.4,0.6-0.7,1H87l13.6-13.6h20.5
		c0.2,0.9,1,1.5,1.9,1.5l0,0c1.1,0,1.9-0.9,1.9-1.9c0-1.1-0.9-1.9-1.9-1.9c-0.9,0-1.6,0.6-1.9,1.4h-20.5L87,63.8H29.1L29.1,63.8z
		 M27.2,66.2c-0.3,0.3-0.6,0.6-0.9,1H88l9.7-9.7H126l8.4-8.4c0.4,0.4,0.8,0.6,1.4,0.6l0,0c1.1,0,1.9-0.9,1.9-1.9
		c0-1.1-0.9-1.9-1.9-1.9c-1.1,0-1.9,0.9-1.9,1.9c0,0.3,0.1,0.6,0.2,0.8l-8,8H97.7L88,66.2H27.2L27.2,66.2z M24.9,68.6
		c-0.3,0.3-0.6,0.6-0.9,1h65.9l8.8-8.8h29.2l4.9-4.9h1c0.2,0.9,1,1.5,1.9,1.5l0,0c1.1,0,1.9-0.9,1.9-1.9c0-1.1-0.9-1.9-1.9-1.9
		c-0.9,0-1.6,0.6-1.9,1.4h-1.1l-4.9,4.9H98.7l-8.8,8.8H24.9L24.9,68.6z M22.2,71.6c-0.3,0.3-0.6,0.6-0.9,1h69.5l8.8-8.8h34.1
		c0.2,0.9,1,1.5,1.9,1.5l0,0c1.1,0,1.9-0.9,1.9-1.9c0-1.1-0.9-1.9-1.9-1.9c-0.9,0-1.6,0.6-1.9,1.4H99.7l-8.8,8.8H22.2L22.2,71.6z
		 M19.7,74.5c-0.3,0.3-0.5,0.6-0.8,1h74l7.8-7.8h16.6l3.9,3.9h12.7c0.2,0.9,1,1.5,1.9,1.5l0,0c1.1,0,1.9-0.9,1.9-1.9
		c0-1.1-0.9-1.9-1.9-1.9c-0.9,0-1.6,0.6-1.9,1.4h-12.7l-3.9-3.9h-16.6l-7.8,7.8H19.7L19.7,74.5z M16.4,78.4c-0.2,0.3-0.4,0.7-0.5,1
		h118c0.2,0.9,1,1.5,1.9,1.5c1.1,0,1.9-0.9,1.9-1.9c0-1.1-0.9-1.9-1.9-1.9c-0.9,0-1.6,0.6-1.9,1.4H16.4L16.4,78.4z M15.3,81.3
		c0,0.3,0,0.7,0,1h82.4l5.8,5.8h18.6c0.2,0.9,1,1.5,1.9,1.5c1.1,0,1.9-0.9,1.9-1.9c0-1.1-0.9-1.9-1.9-1.9c-0.9,0-1.6,0.6-1.9,1.4
		h-18.6l-5.8-5.8H15.3L15.3,81.3z M20.6,87.4c0.2,0.1,0.4,0.3,0.6,0.4l1.5-1.5h59.4L92.8,97h16.6c0.2,0.8,1,1.4,1.9,1.4l0,0
		c1.1,0,1.9-0.9,1.9-1.9c0-1.1-0.9-1.9-1.9-1.9c-0.9,0-1.7,0.6-1.9,1.5H92.8L82.1,85.3H22.7L20.6,87.4L20.6,87.4z M22.7,98.9
		c-0.1,0.4-0.3,0.8-0.4,1.2c0,0.1,0.1,0.1,0.1,0.2l2.8-2.8h22.9c0.2,0.9,1,1.5,1.9,1.5l0,0c1.1,0,1.9-0.9,1.9-1.9
		c0-1.1-0.9-1.9-1.9-1.9c-0.9,0-1.6,0.6-1.9,1.4H25.2L22.7,98.9L22.7,98.9z M24.6,102.7c0.3,0.2,0.5,0.4,0.8,0.5
		c-0.3,0.2-0.5,0.3-0.7,0.5h17.5c0.2,0.9,1,1.5,1.9,1.5l0,0c1.1,0,1.9-0.9,1.9-1.9c0-1.1-0.9-1.9-1.9-1.9c-0.9,0-1.6,0.6-1.9,1.4
		H24.6L24.6,102.7z M24.6,108.8c0.3,0.3,0.6,0.6,1,0.9v-1.1h10.8c0.2,0.9,1,1.5,1.9,1.5l0,0c1.1,0,1.9-0.9,1.9-1.9
		c0-1.1-0.9-1.9-1.9-1.9c-0.9,0-1.6,0.6-1.9,1.4H24.6V108.8L24.6,108.8z M26.9,122.2c-0.1,0.3-0.2,0.7-0.2,1h9.6l19.5-19.5h10.8
		c0.2,0.9,1,1.5,1.9,1.5l0,0c1.1,0,1.9-0.9,1.9-1.9c0-1.1-0.9-1.9-1.9-1.9c-0.9,0-1.6,0.6-1.9,1.4H55.8l-19.5,19.5H26.9L26.9,122.2z
		 M26.6,128.1c0.1,0.3,0.2,0.7,0.3,1h12.3l15.6-15.6h15.6c0.2,0.9,1,1.5,1.9,1.5l0,0c1.1,0,1.9-0.9,1.9-1.9c0-1.1-0.9-1.9-1.9-1.9
		c-0.9,0-1.6,0.6-1.9,1.4H54.8l-15.6,15.6H26.6L26.6,128.1z M41.9,134.2l15.9-15.9h7.8c0.2,0.9,1,1.5,1.9,1.5l0,0
		c1.1,0,1.9-0.9,1.9-1.9c0-1.1-0.9-1.9-1.9-1.9c-0.9,0-1.6,0.6-1.9,1.4h-7.9L41,134.1L41.9,134.2L41.9,134.2z M48.5,134.6
		c0.3,0,0.6,0,1,0l7.5-7.5c0.2,0.1,0.5,0.2,0.8,0.2l0,0c1.1,0,1.9-0.9,1.9-1.9s-0.9-1.9-1.9-1.9c-1.1,0-1.9,0.9-1.9,1.9
		c0,0.5,0.2,1,0.6,1.4L48.5,134.6L48.5,134.6z M54.9,134.9l6.8-6.8h10.7l16.6-16.6h34.2c0.2-0.8,1-1.4,1.9-1.4
		c1.1,0,1.9,0.9,1.9,1.9c0,1.1-0.9,1.9-1.9,1.9l0,0c-0.9,0-1.7-0.6-1.9-1.5H88.9L72.4,129H61.7l-5.9,5.9
		C55.5,134.9,55.2,134.9,54.9,134.9z"/>
	<g>
		<path class="st3" d="M305,86.1c11.4,0,16.6-8.4,16.6-16.2s-5.2-16.2-16.6-16.2h-19V108h2.8V56.6H305c9.5,0,13.8,6.9,13.8,13.3
			c0,3.5-1.2,6.8-3.4,9.2c-2.5,2.7-6.1,4.2-10.4,4.2h-11v2.3l24.7,22.3h4.2l-24.2-21.8H305z"/>
		<path class="st3" d="M279.2,90.9c-1.1,2.5-2.7,4.9-4.8,7c-4.5,4.6-10.4,7.2-16.7,7.2c-6.3,0-12.2-2.5-16.7-7.2
			c-4.5-4.6-7-10.7-7-17c0-6.3,2.5-12.4,7-17.1c4.4-4.6,10.4-7.1,16.7-7.1c6.4,0,12.3,2.5,16.7,7.1c2.1,2.1,3.7,4.5,4.8,7.1l0.2,0.5
			h3.1l-0.5-1.2c-1.3-3.1-3.2-6-5.6-8.4c-5-5.2-11.7-8-18.8-8c-7.1,0-13.8,2.8-18.8,8c-5,5.2-7.7,11.9-7.7,19c0,7.2,2.8,14,7.7,19.1
			c5,5.2,11.7,8,18.8,8c7.1,0,13.8-2.8,18.8-8c2.4-2.5,4.3-5.4,5.6-8.4l0.5-1.2h-3.1L279.2,90.9z"/>
		<path class="st3" d="M351.2,53c-7.4,0-14.3,2.9-19.5,8.2c-5.2,5.4-8.1,12.3-8.1,19.7s2.9,14.3,8.1,19.7c5.2,5.3,12.1,8.2,19.5,8.2
			c7.4,0,14.4-2.9,19.6-8.2c5.2-5.3,8.1-12.3,8.1-19.7c0-7.4-2.9-14.3-8.1-19.7C365.6,55.9,358.6,53,351.2,53z M351.2,55.9
			c6.6,0,12.9,2.6,17.6,7.4c4.6,4.7,7.2,11,7.2,17.6s-2.6,12.9-7.2,17.6c-4.7,4.8-10.9,7.4-17.6,7.4c-6.6,0-12.8-2.6-17.5-7.4
			c-4.7-4.8-7.3-11-7.3-17.6c0-6.6,2.6-12.8,7.3-17.6C338.4,58.5,344.6,55.9,351.2,55.9z"/>
		<path class="st3" d="M483.2,62.3c-4.9-5.5-11.8-8.5-20-8.5h-18.6V108h18.6c8.2,0,15.2-2.9,20-8.5c4.3-4.9,6.7-11.5,6.7-18.6
			S487.5,67.2,483.2,62.3z M463.2,105.1h-15.7V56.6h15.7c16.4,0,23.9,12.6,23.9,24.3C487.1,92.6,479.6,105.1,463.2,105.1z"/>
		<polygon class="st3" points="423.4,103.1 411.4,69.1 408.6,69.1 396.6,103.1 380.3,53.8 377.3,53.8 395.4,108.5 397.7,108.5 
			410,73.5 422.4,108.5 424.6,108.5 442.8,53.8 439.8,53.8 		"/>
	</g>
	<path class="st1" d="M214.7,108.1V63h15.8v-7.7h-39.3V63h15.9v45.1H214.7L214.7,108.1z M188.6,55.7h-27.1v7.5h9.8v37.4h-9.8v7.6
		h27.1v-7.6h-9.8V63.2h9.8V55.7z"/>
	<polygon class="st0" points="127,104.4 125.1,104.4 125.1,104.4 125.1,104.4 125.1,104.4 127,104.4 127,104.4 127,104.4 	"/>
</g>
</svg>
